<svg width="162" height="211" viewBox="0 0 162 211" fill="none" xmlns="http://www.w3.org/2000/svg">
<rect width="162" height="211" fill="#E5E5E5"/>
<ellipse cx="81" cy="131.5" rx="81" ry="79.5" fill="#B78AC7"/>
<path d="M80.5 93L112.976 150.75H48.024L80.5 93Z" fill="#E8E59F"/>
<path d="M36.4688 12.8438L39.8555 0.9375H41.4961L40.5469 5.56641L36.9023 18H35.2734L36.4688 12.8438ZM32.9648 0.9375L35.6602 12.6094L36.4688 18H34.8516L30.7148 0.9375H32.9648ZM45.8789 12.5977L48.5156 0.9375H50.7773L46.6523 18H45.0352L45.8789 12.5977ZM41.7422 0.9375L45.0352 12.8438L46.2305 18H44.6016L41.0859 5.56641L40.125 0.9375H41.7422ZM52.0078 11.8008V11.5312C52.0078 10.6172 52.1406 9.76953 52.4062 8.98828C52.6719 8.19922 53.0547 7.51562 53.5547 6.9375C54.0547 6.35156 54.6602 5.89844 55.3711 5.57812C56.082 5.25 56.8789 5.08594 57.7617 5.08594C58.6523 5.08594 59.4531 5.25 60.1641 5.57812C60.8828 5.89844 61.4922 6.35156 61.9922 6.9375C62.5 7.51562 62.8867 8.19922 63.1523 8.98828C63.418 9.76953 63.5508 10.6172 63.5508 11.5312V11.8008C63.5508 12.7148 63.418 13.5625 63.1523 14.3438C62.8867 15.125 62.5 15.8086 61.9922 16.3945C61.4922 16.9727 60.8867 17.4258 60.1758 17.7539C59.4727 18.0742 58.6758 18.2344 57.7852 18.2344C56.8945 18.2344 56.0938 18.0742 55.3828 17.7539C54.6719 17.4258 54.0625 16.9727 53.5547 16.3945C53.0547 15.8086 52.6719 15.125 52.4062 14.3438C52.1406 13.5625 52.0078 12.7148 52.0078 11.8008ZM54.1758 11.5312V11.8008C54.1758 12.4336 54.25 13.0312 54.3984 13.5938C54.5469 14.1484 54.7695 14.6406 55.0664 15.0703C55.3711 15.5 55.75 15.8398 56.2031 16.0898C56.6562 16.332 57.1836 16.4531 57.7852 16.4531C58.3789 16.4531 58.8984 16.332 59.3438 16.0898C59.7969 15.8398 60.1719 15.5 60.4688 15.0703C60.7656 14.6406 60.9883 14.1484 61.1367 13.5938C61.293 13.0312 61.3711 12.4336 61.3711 11.8008V11.5312C61.3711 10.9062 61.293 10.3164 61.1367 9.76172C60.9883 9.19922 60.7617 8.70312 60.457 8.27344C60.1602 7.83594 59.7852 7.49219 59.332 7.24219C58.8867 6.99219 58.3633 6.86719 57.7617 6.86719C57.168 6.86719 56.6445 6.99219 56.1914 7.24219C55.7461 7.49219 55.3711 7.83594 55.0664 8.27344C54.7695 8.70312 54.5469 9.19922 54.3984 9.76172C54.25 10.3164 54.1758 10.9062 54.1758 11.5312ZM68.4375 0V18H66.2695V0H68.4375ZM67.9219 11.1797L67.0195 11.1445C67.0273 10.2773 67.1562 9.47656 67.4062 8.74219C67.6562 8 68.0078 7.35547 68.4609 6.80859C68.9141 6.26172 69.4531 5.83984 70.0781 5.54297C70.7109 5.23828 71.4102 5.08594 72.1758 5.08594C72.8008 5.08594 73.3633 5.17188 73.8633 5.34375C74.3633 5.50781 74.7891 5.77344 75.1406 6.14062C75.5 6.50781 75.7734 6.98438 75.9609 7.57031C76.1484 8.14844 76.2422 8.85547 76.2422 9.69141V18H74.0625V9.66797C74.0625 9.00391 73.9648 8.47266 73.7695 8.07422C73.5742 7.66797 73.2891 7.375 72.9141 7.19531C72.5391 7.00781 72.0781 6.91406 71.5312 6.91406C70.9922 6.91406 70.5 7.02734 70.0547 7.25391C69.6172 7.48047 69.2383 7.79297 68.918 8.19141C68.6055 8.58984 68.3594 9.04688 68.1797 9.5625C68.0078 10.0703 67.9219 10.6094 67.9219 11.1797ZM78.9141 11.8008V11.5312C78.9141 10.6172 79.0469 9.76953 79.3125 8.98828C79.5781 8.19922 79.9609 7.51562 80.4609 6.9375C80.9609 6.35156 81.5664 5.89844 82.2773 5.57812C82.9883 5.25 83.7852 5.08594 84.668 5.08594C85.5586 5.08594 86.3594 5.25 87.0703 5.57812C87.7891 5.89844 88.3984 6.35156 88.8984 6.9375C89.4062 7.51562 89.793 8.19922 90.0586 8.98828C90.3242 9.76953 90.457 10.6172 90.457 11.5312V11.8008C90.457 12.7148 90.3242 13.5625 90.0586 14.3438C89.793 15.125 89.4062 15.8086 88.8984 16.3945C88.3984 16.9727 87.793 17.4258 87.082 17.7539C86.3789 18.0742 85.582 18.2344 84.6914 18.2344C83.8008 18.2344 83 18.0742 82.2891 17.7539C81.5781 17.4258 80.9688 16.9727 80.4609 16.3945C79.9609 15.8086 79.5781 15.125 79.3125 14.3438C79.0469 13.5625 78.9141 12.7148 78.9141 11.8008ZM81.082 11.5312V11.8008C81.082 12.4336 81.1562 13.0312 81.3047 13.5938C81.4531 14.1484 81.6758 14.6406 81.9727 15.0703C82.2773 15.5 82.6562 15.8398 83.1094 16.0898C83.5625 16.332 84.0898 16.4531 84.6914 16.4531C85.2852 16.4531 85.8047 16.332 86.25 16.0898C86.7031 15.8398 87.0781 15.5 87.375 15.0703C87.6719 14.6406 87.8945 14.1484 88.043 13.5938C88.1992 13.0312 88.2773 12.4336 88.2773 11.8008V11.5312C88.2773 10.9062 88.1992 10.3164 88.043 9.76172C87.8945 9.19922 87.668 8.70312 87.3633 8.27344C87.0664 7.83594 86.6914 7.49219 86.2383 7.24219C85.793 6.99219 85.2695 6.86719 84.668 6.86719C84.0742 6.86719 83.5508 6.99219 83.0977 7.24219C82.6523 7.49219 82.2773 7.83594 81.9727 8.27344C81.6758 8.70312 81.4531 9.19922 81.3047 9.76172C81.1562 10.3164 81.082 10.9062 81.082 11.5312ZM92.6016 11.8008V11.5312C92.6016 10.6172 92.7344 9.76953 93 8.98828C93.2656 8.19922 93.6484 7.51562 94.1484 6.9375C94.6484 6.35156 95.2539 5.89844 95.9648 5.57812C96.6758 5.25 97.4727 5.08594 98.3555 5.08594C99.2461 5.08594 100.047 5.25 100.758 5.57812C101.477 5.89844 102.086 6.35156 102.586 6.9375C103.094 7.51562 103.48 8.19922 103.746 8.98828C104.012 9.76953 104.145 10.6172 104.145 11.5312V11.8008C104.145 12.7148 104.012 13.5625 103.746 14.3438C103.48 15.125 103.094 15.8086 102.586 16.3945C102.086 16.9727 101.48 17.4258 100.77 17.7539C100.066 18.0742 99.2695 18.2344 98.3789 18.2344C97.4883 18.2344 96.6875 18.0742 95.9766 17.7539C95.2656 17.4258 94.6562 16.9727 94.1484 16.3945C93.6484 15.8086 93.2656 15.125 93 14.3438C92.7344 13.5625 92.6016 12.7148 92.6016 11.8008ZM94.7695 11.5312V11.8008C94.7695 12.4336 94.8438 13.0312 94.9922 13.5938C95.1406 14.1484 95.3633 14.6406 95.6602 15.0703C95.9648 15.5 96.3438 15.8398 96.7969 16.0898C97.25 16.332 97.7773 16.4531 98.3789 16.4531C98.9727 16.4531 99.4922 16.332 99.9375 16.0898C100.391 15.8398 100.766 15.5 101.062 15.0703C101.359 14.6406 101.582 14.1484 101.73 13.5938C101.887 13.0312 101.965 12.4336 101.965 11.8008V11.5312C101.965 10.9062 101.887 10.3164 101.73 9.76172C101.582 9.19922 101.355 8.70312 101.051 8.27344C100.754 7.83594 100.379 7.49219 99.9258 7.24219C99.4805 6.99219 98.957 6.86719 98.3555 6.86719C97.7617 6.86719 97.2383 6.99219 96.7852 7.24219C96.3398 7.49219 95.9648 7.83594 95.6602 8.27344C95.3633 8.70312 95.1406 9.19922 94.9922 9.76172C94.8438 10.3164 94.7695 10.9062 94.7695 11.5312ZM106.289 11.8008V11.5312C106.289 10.6172 106.422 9.76953 106.688 8.98828C106.953 8.19922 107.336 7.51562 107.836 6.9375C108.336 6.35156 108.941 5.89844 109.652 5.57812C110.363 5.25 111.16 5.08594 112.043 5.08594C112.934 5.08594 113.734 5.25 114.445 5.57812C115.164 5.89844 115.773 6.35156 116.273 6.9375C116.781 7.51562 117.168 8.19922 117.434 8.98828C117.699 9.76953 117.832 10.6172 117.832 11.5312V11.8008C117.832 12.7148 117.699 13.5625 117.434 14.3438C117.168 15.125 116.781 15.8086 116.273 16.3945C115.773 16.9727 115.168 17.4258 114.457 17.7539C113.754 18.0742 112.957 18.2344 112.066 18.2344C111.176 18.2344 110.375 18.0742 109.664 17.7539C108.953 17.4258 108.344 16.9727 107.836 16.3945C107.336 15.8086 106.953 15.125 106.688 14.3438C106.422 13.5625 106.289 12.7148 106.289 11.8008ZM108.457 11.5312V11.8008C108.457 12.4336 108.531 13.0312 108.68 13.5938C108.828 14.1484 109.051 14.6406 109.348 15.0703C109.652 15.5 110.031 15.8398 110.484 16.0898C110.938 16.332 111.465 16.4531 112.066 16.4531C112.66 16.4531 113.18 16.332 113.625 16.0898C114.078 15.8398 114.453 15.5 114.75 15.0703C115.047 14.6406 115.27 14.1484 115.418 13.5938C115.574 13.0312 115.652 12.4336 115.652 11.8008V11.5312C115.652 10.9062 115.574 10.3164 115.418 9.76172C115.27 9.19922 115.043 8.70312 114.738 8.27344C114.441 7.83594 114.066 7.49219 113.613 7.24219C113.168 6.99219 112.645 6.86719 112.043 6.86719C111.449 6.86719 110.926 6.99219 110.473 7.24219C110.027 7.49219 109.652 7.83594 109.348 8.27344C109.051 8.70312 108.828 9.19922 108.68 9.76172C108.531 10.3164 108.457 10.9062 108.457 11.5312ZM123.129 0.9375L122.977 13.1836H121.02L120.855 0.9375H123.129ZM120.785 16.9102C120.785 16.5586 120.891 16.2617 121.102 16.0195C121.32 15.7773 121.641 15.6562 122.062 15.6562C122.477 15.6562 122.793 15.7773 123.012 16.0195C123.238 16.2617 123.352 16.5586 123.352 16.9102C123.352 17.2461 123.238 17.5352 123.012 17.7773C122.793 18.0195 122.477 18.1406 122.062 18.1406C121.641 18.1406 121.32 18.0195 121.102 17.7773C120.891 17.5352 120.785 17.2461 120.785 16.9102Z" fill="#2043BE"/>
</svg>
